<svg width="31" height="31" viewBox="0 0 31 31" fill="none" xmlns="http://www.w3.org/2000/svg">
<path d="M18.8696 12.1866C18.8696 6.97595 14.6455 2.75186 9.43478 2.75186C4.2241 2.75186 0 6.97595 0 12.1866C0 17.3973 4.2241 21.6214 9.43478 21.6214C10.8072 21.6214 12.1111 21.3284 13.2875 20.8015C12.1157 18.2489 11.1879 16.3727 9.43478 13.5345C12.861 14.9551 14.6808 16.5639 16.4424 18.5041C17.9511 16.8316 18.8696 14.6164 18.8696 12.1866Z" fill="#5C9EAD"/>
<path fill-rule="evenodd" clip-rule="evenodd" d="M16.2862 24.0924C16.7266 24.068 16.9901 24.0295 17.5217 23.8678C17.1513 24.6036 16.6202 24.8544 14.6014 24.7663C12.9395 26.2116 11.5105 26.9474 7.41304 28.2482C8.60586 28.1024 9.60943 28.0772 10.4936 28.0549C12.5063 28.0042 13.9004 27.9691 15.5 26.5634C15.6039 26.8531 14.846 27.7744 14.6014 28.0236C14.5196 28.1001 14.4859 28.1285 14.4891 28.1359C14.4923 28.1431 14.5304 28.1301 14.6014 28.1359C14.549 28.1423 15.9918 28.0073 16.3986 27.6866C16.4275 27.6638 16.4471 27.6784 16.4907 27.7127C16.8254 27.9593 17.248 28.0187 18.9819 27.9113C19.9164 27.8533 20.8226 27.1784 20.779 27.125C22.0408 25.9947 22.605 25.2657 23.3062 23.8116C24.1321 22.2824 24.6816 21.5503 25.8333 20.4982C27.5361 19.3405 28.6751 18.8303 31 18.1395C29.5608 18.3917 28.7861 18.5739 27.4058 18.9258C26.4548 19.0965 25.9882 19.1429 25.8333 18.9258C25.3375 18.2243 24.86 18.0474 23.587 18.0272C21.7595 17.9358 20.8977 18.877 19.5216 20.3796C18.803 20.8793 18.4086 20.8685 17.7464 20.3859C17.205 19.5629 16.9279 19.1635 16.4424 18.5041C15.5678 19.4736 14.4948 20.2607 13.2875 20.8015C13.5154 21.298 13.7526 21.8202 14.0068 22.3799L14.0072 22.3807L14.0074 22.3811C14.1265 22.6433 14.2494 22.9139 14.3768 23.1939C14.4047 23.2236 14.4317 23.2526 14.4582 23.281C14.919 23.7758 15.2012 24.0787 16.2862 24.0924ZM24.1486 19.8243C23.9292 19.8243 23.8116 19.5944 23.8116 19.375C23.8116 19.1557 23.9292 18.9258 24.1486 18.9258C24.3679 18.9258 24.4855 19.1557 24.4855 19.375C24.4855 19.5944 24.3679 19.8243 24.1486 19.8243Z" fill="#5C9EAD"/>
<path fill-rule="evenodd" clip-rule="evenodd" d="M24.2609 17.1287C24.2609 17.1259 24.2609 17.1231 24.2609 17.1203C24.2655 17.1223 24.2656 17.1251 24.2609 17.1287Z" fill="#5C9EAD"/>
<path d="M23.8116 13.7591C23.7392 15.3748 23.7922 15.9318 21.5652 17.8026C22.4771 17.3403 24.1732 17.0836 24.2609 17.1203C24.259 15.7894 24.4155 15.0222 23.8116 13.7591Z" fill="#5C9EAD"/>
</svg>
